{"title":"Glove Light Show :D (THiZZoRDiEuBZs)","uid":8534408,"size":148899114,"categoryP":"video","categoryS":"handheld","magnet":"?xt=urn:btih:94edfc5ab75a252fc3a0dcf63043c48475a91b0a&amp;dn=Glove+Light+Show+%3AD+%28THiZZoRDiEuBZs%29&amp;tr=udp%3A%2F%2Ftracker.openbittorrent.com%3A80&amp;tr=udp%3A%2F%2Fopen.demonii.com%3A1337&amp;tr=udp%3A%2F%2Ftracker.coppersurfer.tk%3A6969&amp;tr=udp%3A%2F%2Fexodus.desync.com%3A6969","seeders":0,"leechers":1,"uploader":null,"files":1,"time":1370228494,"description":"Here is a light show that my friend did...\n\nFormat : Windows Media\nFile size : 142 MiB\nDuration : 4mn 5s\nOverall bit rate mode : Constant\nOverall bit rate : 4 857 Kbps\nMaximum Overall bit rate : 10.2 Mbps\nEncoded date : UTC 2012-02-06 05:38:57.202\nCover : Y\n\nVideo\nID : 1\nFormat : VC-1\nFormat profile : MP@HL\nCodec ID : WMV3\nCodec ID/Info : Windows Media Video 9\nCodec ID/Hint : WMV3\nDescription of the codec : Windows Media Video 9 - Professional\nDuration : 4mn 5s\nBit rate mode : Constant\nBit rate : 10 000 Kbps\nWidth : 960 pixels\nHeight : 720 pixels\nDisplay aspect ratio : 4:3\nFrame rate : 29.970 fps\nBit depth : 8 bits\nScan type : Progressive\nBits/(Pixel*Frame) : 0.483\nStream size : 292 MiB\n\nAudio\nID : 2\nFormat : WMA\nFormat profile : Pro\nCodec ID : 162\nCodec ID/Info : Windows Media Audio\nDescription of the codec : Windows Media Audio 10 Professional - 128 kbps, 48 kHz, 2 channel 16 bit (A/V) 1-pass CBR\nDuration : 4mn 5s\nBit rate mode : Constant\nBit rate : 128 Kbps\nChannel(s) : 2 channels\nSampling rate : 48.0 KHz\nBit depth : 16 bits\nStream size : 3.74 MiB (3%)","torrent":{"xt":"urn:btih:94edfc5ab75a252fc3a0dcf63043c48475a91b0a","amp;dn":"Glove+Light+Show+%3AD+%28THiZZoRDiEuBZs%29","amp;tr":["udp%3A%2F%2Ftracker.openbittorrent.com%3A80","udp%3A%2F%2Fopen.demonii.com%3A1337","udp%3A%2F%2Ftracker.coppersurfer.tk%3A6969","udp%3A%2F%2Fexodus.desync.com%3A6969"],"infoHash":"94edfc5ab75a252fc3a0dcf63043c48475a91b0a","infoHashBuffer":{"type":"Buffer","data":[148,237,252,90,183,90,37,47,195,160,220,246,48,67,196,132,117,169,27,10]},"announce":[],"urlList":[]}}